<svg width="2481" height="1352" xmlns="http://www.w3.org/2000/svg" xmlns:xlink="http://www.w3.org/1999/xlink" overflow="hidden"><defs><clipPath id="clip0"><rect x="962" y="776" width="2481" height="1352"/></clipPath></defs><g clip-path="url(#clip0)" transform="translate(-962 -776)"><path d="M1457.5 1004.04 1705 1004.04 1705 1077.37 1457.5 1077.37Z" fill="#00B050" fill-rule="evenodd"/><path d="M1457.5 1150.7 1705 1150.7 1705 1224.04 1457.5 1224.04Z" fill="#00B050" fill-rule="evenodd"/><path d="M1705 1150.7 1952.5 1150.7 1952.5 1224.04 1705 1224.04Z" fill="#00B050" fill-rule="evenodd"/><path d="M1457.5 1297.37 1705 1297.37 1705 1370.7 1457.5 1370.7Z" fill="#00B050" fill-rule="evenodd"/><path d="M1705 1297.37 1952.5 1297.37 1952.5 1370.7 1705 1370.7Z" fill="#00B050" fill-rule="evenodd"/><path d="M1952.5 1297.37 2200 1297.37 2200 1370.7 1952.5 1370.7Z" fill="#00B050" fill-rule="evenodd"/><path d="M1457.5 1444.04 1705 1444.04 1705 1517.37 1457.5 1517.37Z" fill="#F4B084" fill-rule="evenodd"/><path d="M1705 1444.04 1952.5 1444.04 1952.5 1517.37 1705 1517.37Z" fill="#00B050" fill-rule="evenodd"/><path d="M1952.5 1444.04 2200 1444.04 2200 1517.37 1952.5 1517.37Z" fill="#00B050" fill-rule="evenodd"/><path d="M2200 1444.04 2447.5 1444.04 2447.5 1517.37 2200 1517.37Z" fill="#00B050" fill-rule="evenodd"/><path d="M1457.5 1590.7 1705 1590.7 1705 1664.04 1457.5 1664.04Z" fill="#F4B084" fill-rule="evenodd"/><path d="M1705 1590.7 1952.5 1590.7 1952.5 1664.04 1705 1664.04Z" fill="#00B050" fill-rule="evenodd"/><path d="M1952.5 1590.7 2200 1590.7 2200 1664.04 1952.5 1664.04Z" fill="#00B050" fill-rule="evenodd"/><path d="M2200 1590.7 2447.5 1590.7 2447.5 1664.04 2200 1664.04Z" fill="#00B050" fill-rule="evenodd"/><path d="M2447.5 1590.7 2695 1590.7 2695 1664.04 2447.5 1664.04Z" fill="#00B050" fill-rule="evenodd"/><path d="M1457.5 1737.37 1705 1737.37 1705 1810.7 1457.5 1810.7Z" fill="#F4B084" fill-rule="evenodd"/><path d="M1705 1737.37 1952.5 1737.37 1952.5 1810.7 1705 1810.7Z" fill="#F4B084" fill-rule="evenodd"/><path d="M1952.5 1737.37 2200 1737.37 2200 1810.7 1952.5 1810.7Z" fill="#00B050" fill-rule="evenodd"/><path d="M2200 1737.37 2447.5 1737.37 2447.5 1810.7 2200 1810.7Z" fill="#00B050" fill-rule="evenodd"/><path d="M2447.5 1737.37 2695 1737.37 2695 1810.7 2447.5 1810.7Z" fill="#00B050" fill-rule="evenodd"/><path d="M2695 1737.37 2942.5 1737.37 2942.5 1810.7 2695 1810.7Z" fill="#00B050" fill-rule="evenodd"/><path d="M1457.5 1884.04 1705 1884.04 1705 1957.37 1457.5 1957.37Z" fill="#F4B084" fill-rule="evenodd"/><path d="M1705 1884.04 1952.5 1884.04 1952.5 1957.37 1705 1957.37Z" fill="#F4B084" fill-rule="evenodd"/><path d="M1952.5 1884.04 2200 1884.04 2200 1957.37 1952.5 1957.37Z" fill="#F4B084" fill-rule="evenodd"/><path d="M2200 1884.04 2447.5 1884.04 2447.5 1957.37 2200 1957.37Z" fill="#00B050" fill-rule="evenodd"/><path d="M2447.5 1884.04 2695 1884.04 2695 1957.37 2447.5 1957.37Z" fill="#00B050" fill-rule="evenodd"/><path d="M2695 1884.04 2942.5 1884.04 2942.5 1957.37 2695 1957.37Z" fill="#00B050" fill-rule="evenodd"/><path d="M2942.5 1884.04 3190 1884.04 3190 1957.37 2942.5 1957.37Z" fill="#00B050" fill-rule="evenodd"/><path d="M1457.5 2030.7 1705 2030.7 1705 2104.04 1457.5 2104.04Z" fill="#F4B084" fill-rule="evenodd"/><path d="M1705 2030.7 1952.5 2030.7 1952.5 2104.04 1705 2104.04Z" fill="#F4B084" fill-rule="evenodd"/><path d="M1952.5 2030.7 2200 2030.7 2200 2104.04 1952.5 2104.04Z" fill="#F4B084" fill-rule="evenodd"/><path d="M2447.5 2030.7 2695 2030.7 2695 2104.04 2447.5 2104.04Z" fill="#00B050" fill-rule="evenodd"/><path d="M2695 2030.7 2942.5 2030.7 2942.5 2104.04 2695 2104.04Z" fill="#00B050" fill-rule="evenodd"/><path d="M2942.5 2030.7 3190 2030.7 3190 2104.04 2942.5 2104.04Z" fill="#00B050" fill-rule="evenodd"/><path d="M3190 2030.7 3437.5 2030.7 3437.5 2104.04 3190 2104.04Z" fill="#00B050" fill-rule="evenodd"/><path d="M1457.5 856.224 1457.5 931.849" stroke="#000000" stroke-width="6.875" stroke-linejoin="round" stroke-miterlimit="10" fill="none" fill-rule="evenodd"/><path d="M1457.5 1002.89 1457.5 1078.52" stroke="#000000" stroke-width="6.875" stroke-linejoin="round" stroke-miterlimit="10" fill="none" fill-rule="evenodd"/><path d="M1457.5 1149.56 1457.5 1225.18" stroke="#000000" stroke-width="6.875" stroke-linejoin="round" stroke-miterlimit="10" fill="none" fill-rule="evenodd"/><path d="M1457.5 1296.22 1457.5 1371.85" stroke="#000000" stroke-width="6.875" stroke-linejoin="round" stroke-miterlimit="10" fill="none" fill-rule="evenodd"/><path d="M1457.5 1442.89 1457.5 1518.52" stroke="#000000" stroke-width="6.875" stroke-linejoin="round" stroke-miterlimit="10" fill="none" fill-rule="evenodd"/><path d="M1457.5 1589.56 1457.5 1665.18" stroke="#000000" stroke-width="6.875" stroke-linejoin="round" stroke-miterlimit="10" fill="none" fill-rule="evenodd"/><path d="M1457.5 1736.22 1457.5 1811.85" stroke="#000000" stroke-width="6.875" stroke-linejoin="round" stroke-miterlimit="10" fill="none" fill-rule="evenodd"/><path d="M1457.5 1882.89 1457.5 1958.52" stroke="#000000" stroke-width="6.875" stroke-linejoin="round" stroke-miterlimit="10" fill="none" fill-rule="evenodd"/><path d="M1457.5 2029.56 1457.5 2105.18" stroke="#000000" stroke-width="6.875" stroke-linejoin="round" stroke-miterlimit="10" fill="none" fill-rule="evenodd"/><path d="M1705 856.224 1705 931.849" stroke="#000000" stroke-width="2.29167" stroke-linejoin="round" stroke-miterlimit="10" fill="none" fill-rule="evenodd"/><path d="M1705 1002.89 1705 1078.52" stroke="#000000" stroke-width="6.875" stroke-linejoin="round" stroke-miterlimit="10" fill="none" fill-rule="evenodd"/><path d="M1705 1149.56 1705 1225.18" stroke="#000000" stroke-width="2.29167" stroke-linejoin="round" stroke-miterlimit="10" fill="none" fill-rule="evenodd"/><path d="M1705 1296.22 1705 1371.85" stroke="#000000" stroke-width="2.29167" stroke-linejoin="round" stroke-miterlimit="10" fill="none" fill-rule="evenodd"/><path d="M1705 1442.89 1705 1518.52" stroke="#000000" stroke-width="6.875" stroke-linejoin="round" stroke-miterlimit="10" fill="none" fill-rule="evenodd"/><path d="M1705 1589.56 1705 1665.18" stroke="#000000" stroke-width="6.875" stroke-linejoin="round" stroke-miterlimit="10" fill="none" fill-rule="evenodd"/><path d="M1705 1736.22 1705 1811.85" stroke="#000000" stroke-width="2.29167" stroke-linejoin="round" stroke-miterlimit="10" fill="none" fill-rule="evenodd"/><path d="M1705 1882.89 1705 1958.52" stroke="#000000" stroke-width="2.29167" stroke-linejoin="round" stroke-miterlimit="10" fill="none" fill-rule="evenodd"/><path d="M1705 2029.56 1705 2105.18" stroke="#000000" stroke-width="2.29167" stroke-linejoin="round" stroke-miterlimit="10" fill="none" fill-rule="evenodd"/><path d="M1952.5 856.224 1952.5 931.849" stroke="#000000" stroke-width="2.29167" stroke-linejoin="round" stroke-miterlimit="10" fill="none" fill-rule="evenodd"/><path d="M1952.5 1002.89 1952.5 1078.52" stroke="#000000" stroke-width="2.29167" stroke-linejoin="round" stroke-miterlimit="10" fill="none" fill-rule="evenodd"/><path d="M1952.5 1149.56 1952.5 1225.18" stroke="#000000" stroke-width="6.875" stroke-linejoin="round" stroke-miterlimit="10" fill="none" fill-rule="evenodd"/><path d="M1952.5 1296.22 1952.5 1371.85" stroke="#000000" stroke-width="2.29167" stroke-linejoin="round" stroke-miterlimit="10" fill="none" fill-rule="evenodd"/><path d="M1952.5 1442.89 1952.5 1518.52" stroke="#000000" stroke-width="2.29167" stroke-linejoin="round" stroke-miterlimit="10" fill="none" fill-rule="evenodd"/><path d="M1952.5 1589.56 1952.5 1665.18" stroke="#000000" stroke-width="2.29167" stroke-linejoin="round" stroke-miterlimit="10" fill="none" fill-rule="evenodd"/><path d="M1952.5 1736.22 1952.5 1811.85" stroke="#000000" stroke-width="6.875" stroke-linejoin="round" stroke-miterlimit="10" fill="none" fill-rule="evenodd"/><path d="M1952.5 1882.89 1952.5 1958.52" stroke="#000000" stroke-width="2.29167" stroke-linejoin="round" stroke-miterlimit="10" fill="none" fill-rule="evenodd"/><path d="M1952.5 2029.56 1952.5 2105.18" stroke="#000000" stroke-width="2.29167" stroke-linejoin="round" stroke-miterlimit="10" fill="none" fill-rule="evenodd"/><path d="M2200 856.224 2200 931.849" stroke="#000000" stroke-width="2.29167" stroke-linejoin="round" stroke-miterlimit="10" fill="none" fill-rule="evenodd"/><path d="M2200 1002.89 2200 1078.52" stroke="#000000" stroke-width="2.29167" stroke-linejoin="round" stroke-miterlimit="10" fill="none" fill-rule="evenodd"/><path d="M2200 1149.56 2200 1225.18" stroke="#000000" stroke-width="2.29167" stroke-linejoin="round" stroke-miterlimit="10" fill="none" fill-rule="evenodd"/><path d="M2200 1296.22 2200 1371.85" stroke="#000000" stroke-width="6.875" stroke-linejoin="round" stroke-miterlimit="10" fill="none" fill-rule="evenodd"/><path d="M2200 1442.89 2200 1518.52" stroke="#000000" stroke-width="2.29167" stroke-linejoin="round" stroke-miterlimit="10" fill="none" fill-rule="evenodd"/><path d="M2200 1589.56 2200 1665.18" stroke="#000000" stroke-width="2.29167" stroke-linejoin="round" stroke-miterlimit="10" fill="none" fill-rule="evenodd"/><path d="M2200 1736.22 2200 1811.85" stroke="#000000" stroke-width="2.29167" stroke-linejoin="round" stroke-miterlimit="10" fill="none" fill-rule="evenodd"/><path d="M2200 1882.89 2200 1958.52" stroke="#000000" stroke-width="6.875" stroke-linejoin="round" stroke-miterlimit="10" fill="none" fill-rule="evenodd"/><path d="M2200 2029.56 2200 2105.18" stroke="#000000" stroke-width="6.875" stroke-linejoin="round" stroke-miterlimit="10" fill="none" fill-rule="evenodd"/><path d="M2447.5 856.224 2447.5 931.849" stroke="#000000" stroke-width="2.29167" stroke-linejoin="round" stroke-miterlimit="10" fill="none" fill-rule="evenodd"/><path d="M2447.5 1002.89 2447.5 1078.52" stroke="#000000" stroke-width="2.29167" stroke-linejoin="round" stroke-miterlimit="10" fill="none" fill-rule="evenodd"/><path d="M2447.5 1149.56 2447.5 1225.18" stroke="#000000" stroke-width="2.29167" stroke-linejoin="round" stroke-miterlimit="10" fill="none" fill-rule="evenodd"/><path d="M2447.5 1296.22 2447.5 1371.85" stroke="#000000" stroke-width="2.29167" stroke-linejoin="round" stroke-miterlimit="10" fill="none" fill-rule="evenodd"/><path d="M2447.5 1442.89 2447.5 1518.52" stroke="#000000" stroke-width="6.875" stroke-linejoin="round" stroke-miterlimit="10" fill="none" fill-rule="evenodd"/><path d="M2447.5 1589.56 2447.5 1665.18" stroke="#000000" stroke-width="6.875" stroke-linejoin="round" stroke-miterlimit="10" fill="none" fill-rule="evenodd"/><path d="M2447.5 1736.22 2447.5 1811.85" stroke="#000000" stroke-width="2.29167" stroke-linejoin="round" stroke-miterlimit="10" fill="none" fill-rule="evenodd"/><path d="M2447.5 1882.89 2447.5 1958.52" stroke="#000000" stroke-width="2.29167" stroke-linejoin="round" stroke-miterlimit="10" fill="none" fill-rule="evenodd"/><path d="M2447.5 2029.56 2447.5 2105.18" stroke="#000000" stroke-width="6.875" stroke-linejoin="round" stroke-miterlimit="10" fill="none" fill-rule="evenodd"/><path d="M2695 856.224 2695 931.849" stroke="#000000" stroke-width="2.29167" stroke-linejoin="round" stroke-miterlimit="10" fill="none" fill-rule="evenodd"/><path d="M2695 1002.89 2695 1078.52" stroke="#000000" stroke-width="2.29167" stroke-linejoin="round" stroke-miterlimit="10" fill="none" fill-rule="evenodd"/><path d="M2695 1149.56 2695 1225.18" stroke="#000000" stroke-width="2.29167" stroke-linejoin="round" stroke-miterlimit="10" fill="none" fill-rule="evenodd"/><path d="M2695 1296.22 2695 1371.85" stroke="#000000" stroke-width="2.29167" stroke-linejoin="round" stroke-miterlimit="10" fill="none" fill-rule="evenodd"/><path d="M2695 1442.89 2695 1518.52" stroke="#000000" stroke-width="2.29167" stroke-linejoin="round" stroke-miterlimit="10" fill="none" fill-rule="evenodd"/><path d="M2695 1589.56 2695 1665.18" stroke="#000000" stroke-width="2.29167" stroke-linejoin="round" stroke-miterlimit="10" fill="none" fill-rule="evenodd"/><path d="M2695 1736.22 2695 1811.85" stroke="#000000" stroke-width="2.29167" stroke-linejoin="round" stroke-miterlimit="10" fill="none" fill-rule="evenodd"/><path d="M2695 1882.89 2695 1958.52" stroke="#000000" stroke-width="2.29167" stroke-linejoin="round" stroke-miterlimit="10" fill="none" fill-rule="evenodd"/><path d="M2695 2029.56 2695 2105.18" stroke="#000000" stroke-width="2.29167" stroke-linejoin="round" stroke-miterlimit="10" fill="none" fill-rule="evenodd"/><path d="M2942.5 856.224 2942.5 931.849" stroke="#000000" stroke-width="2.29167" stroke-linejoin="round" stroke-miterlimit="10" fill="none" fill-rule="evenodd"/><path d="M2942.5 1002.89 2942.5 1078.52" stroke="#000000" stroke-width="2.29167" stroke-linejoin="round" stroke-miterlimit="10" fill="none" fill-rule="evenodd"/><path d="M2942.5 1149.56 2942.5 1225.18" stroke="#000000" stroke-width="2.29167" stroke-linejoin="round" stroke-miterlimit="10" fill="none" fill-rule="evenodd"/><path d="M2942.5 1296.22 2942.5 1371.85" stroke="#000000" stroke-width="2.29167" stroke-linejoin="round" stroke-miterlimit="10" fill="none" fill-rule="evenodd"/><path d="M2942.5 1442.89 2942.5 1518.52" stroke="#000000" stroke-width="2.29167" stroke-linejoin="round" stroke-miterlimit="10" fill="none" fill-rule="evenodd"/><path d="M2942.5 1589.56 2942.5 1665.18" stroke="#000000" stroke-width="2.29167" stroke-linejoin="round" stroke-miterlimit="10" fill="none" fill-rule="evenodd"/><path d="M2942.5 1736.22 2942.5 1811.85" stroke="#000000" stroke-width="2.29167" stroke-linejoin="round" stroke-miterlimit="10" fill="none" fill-rule="evenodd"/><path d="M2942.5 1882.89 2942.5 1958.52" stroke="#000000" stroke-width="2.29167" stroke-linejoin="round" stroke-miterlimit="10" fill="none" fill-rule="evenodd"/><path d="M2942.5 2029.56 2942.5 2105.18" stroke="#000000" stroke-width="2.29167" stroke-linejoin="round" stroke-miterlimit="10" fill="none" fill-rule="evenodd"/><path d="M3190 856.224 3190 931.849" stroke="#000000" stroke-width="6.875" stroke-linejoin="round" stroke-miterlimit="10" fill="none" fill-rule="evenodd"/><path d="M3190 1002.89 3190 1078.52" stroke="#000000" stroke-width="6.875" stroke-linejoin="round" stroke-miterlimit="10" fill="none" fill-rule="evenodd"/><path d="M3190 1149.56 3190 1225.18" stroke="#000000" stroke-width="6.875" stroke-linejoin="round" stroke-miterlimit="10" fill="none" fill-rule="evenodd"/><path d="M3190 1296.22 3190 1371.85" stroke="#000000" stroke-width="6.875" stroke-linejoin="round" stroke-miterlimit="10" fill="none" fill-rule="evenodd"/><path d="M3190 1442.89 3190 1518.52" stroke="#000000" stroke-width="6.875" stroke-linejoin="round" stroke-miterlimit="10" fill="none" fill-rule="evenodd"/><path d="M3190 1589.56 3190 1665.18" stroke="#000000" stroke-width="6.875" stroke-linejoin="round" stroke-miterlimit="10" fill="none" fill-rule="evenodd"/><path d="M3190 1736.22 3190 1811.85" stroke="#000000" stroke-width="6.875" stroke-linejoin="round" stroke-miterlimit="10" fill="none" fill-rule="evenodd"/><path d="M3190 1882.89 3190 1958.52" stroke="#000000" stroke-width="6.875" stroke-linejoin="round" stroke-miterlimit="10" fill="none" fill-rule="evenodd"/><path d="M3190 2029.56 3190 2105.18" stroke="#000000" stroke-width="2.29167" stroke-linejoin="round" stroke-miterlimit="10" fill="none" fill-rule="evenodd"/><path d="M1454.06 857.37 3438.65 857.37" stroke="#000000" stroke-width="2.29167" stroke-linejoin="round" stroke-miterlimit="10" fill="none" fill-rule="evenodd"/><path d="M1454.06 930.703 3438.65 930.703" stroke="#000000" stroke-width="2.29167" stroke-linejoin="round" stroke-miterlimit="10" fill="none" fill-rule="evenodd"/><path d="M1454.06 1004.04 3438.65 1004.04" stroke="#000000" stroke-width="2.29167" stroke-linejoin="round" stroke-miterlimit="10" fill="none" fill-rule="evenodd"/><path d="M1454.06 1077.37 3438.65 1077.37" stroke="#000000" stroke-width="2.29167" stroke-linejoin="round" stroke-miterlimit="10" fill="none" fill-rule="evenodd"/><path d="M1454.06 1150.7 3438.65 1150.7" stroke="#000000" stroke-width="2.29167" stroke-linejoin="round" stroke-miterlimit="10" fill="none" fill-rule="evenodd"/><path d="M1454.06 1224.04 3438.65 1224.04" stroke="#000000" stroke-width="2.29167" stroke-linejoin="round" stroke-miterlimit="10" fill="none" fill-rule="evenodd"/><path d="M1454.06 1297.37 3438.65 1297.37" stroke="#000000" stroke-width="2.29167" stroke-linejoin="round" stroke-miterlimit="10" fill="none" fill-rule="evenodd"/><path d="M1454.06 1370.7 3438.65 1370.7" stroke="#000000" stroke-width="2.29167" stroke-linejoin="round" stroke-miterlimit="10" fill="none" fill-rule="evenodd"/><path d="M1454.06 1444.04 3438.65 1444.04" stroke="#000000" stroke-width="2.29167" stroke-linejoin="round" stroke-miterlimit="10" fill="none" fill-rule="evenodd"/><path d="M1454.06 1517.37 3438.65 1517.37" stroke="#000000" stroke-width="2.29167" stroke-linejoin="round" stroke-miterlimit="10" fill="none" fill-rule="evenodd"/><path d="M1454.06 1590.7 3438.65 1590.7" stroke="#000000" stroke-width="2.29167" stroke-linejoin="round" stroke-miterlimit="10" fill="none" fill-rule="evenodd"/><path d="M1454.06 1664.04 3438.65 1664.04" stroke="#000000" stroke-width="2.29167" stroke-linejoin="round" stroke-miterlimit="10" fill="none" fill-rule="evenodd"/><path d="M1454.06 1737.37 3438.65 1737.37" stroke="#000000" stroke-width="2.29167" stroke-linejoin="round" stroke-miterlimit="10" fill="none" fill-rule="evenodd"/><path d="M1454.06 1810.7 3438.65 1810.7" stroke="#000000" stroke-width="2.29167" stroke-linejoin="round" stroke-miterlimit="10" fill="none" fill-rule="evenodd"/><path d="M1454.06 1884.04 3438.65 1884.04" stroke="#000000" stroke-width="2.29167" stroke-linejoin="round" stroke-miterlimit="10" fill="none" fill-rule="evenodd"/><path d="M1454.06 1957.37 3438.65 1957.37" stroke="#000000" stroke-width="2.29167" stroke-linejoin="round" stroke-miterlimit="10" fill="none" fill-rule="evenodd"/><path d="M1454.06 2030.7 3440.94 2030.7" stroke="#000000" stroke-width="2.29167" stroke-linejoin="round" stroke-miterlimit="10" fill="none" fill-rule="evenodd"/><path d="M3437.5 856.224 3437.5 931.849" stroke="#000000" stroke-width="2.29167" stroke-linejoin="round" stroke-miterlimit="10" fill="none" fill-rule="evenodd"/><path d="M3437.5 1002.89 3437.5 1078.52" stroke="#000000" stroke-width="2.29167" stroke-linejoin="round" stroke-miterlimit="10" fill="none" fill-rule="evenodd"/><path d="M3437.5 1149.56 3437.5 1225.18" stroke="#000000" stroke-width="2.29167" stroke-linejoin="round" stroke-miterlimit="10" fill="none" fill-rule="evenodd"/><path d="M3437.5 1296.22 3437.5 1371.85" stroke="#000000" stroke-width="2.29167" stroke-linejoin="round" stroke-miterlimit="10" fill="none" fill-rule="evenodd"/><path d="M3437.5 1442.89 3437.5 1518.52" stroke="#000000" stroke-width="2.29167" stroke-linejoin="round" stroke-miterlimit="10" fill="none" fill-rule="evenodd"/><path d="M3437.5 1589.56 3437.5 1665.18" stroke="#000000" stroke-width="2.29167" stroke-linejoin="round" stroke-miterlimit="10" fill="none" fill-rule="evenodd"/><path d="M3437.5 1736.22 3437.5 1811.85" stroke="#000000" stroke-width="2.29167" stroke-linejoin="round" stroke-miterlimit="10" fill="none" fill-rule="evenodd"/><path d="M3437.5 1882.89 3437.5 1958.52" stroke="#000000" stroke-width="2.29167" stroke-linejoin="round" stroke-miterlimit="10" fill="none" fill-rule="evenodd"/><path d="M3437.5 2029.56 3437.5 2105.18" stroke="#000000" stroke-width="6.875" stroke-linejoin="round" stroke-miterlimit="10" fill="none" fill-rule="evenodd"/><path d="M1454.06 2104.04 3440.94 2104.04" stroke="#000000" stroke-width="2.29167" stroke-linejoin="round" stroke-miterlimit="10" fill="none" fill-rule="evenodd"/><text font-family="Cascadia Mono,Cascadia Mono_MSFontService,sans-serif" font-style="italic" font-weight="400" font-size="50" transform="matrix(1 0 0 1 1318.85 839)">i<tspan font-size="50" x="202.813" y="0">p, j</tspan><tspan font-size="50" x="1980" y="0">r</tspan><tspan font-size="50" x="-262.396" y="73">a)</tspan><tspan font-style="normal" font-size="50" x="232.604" y="73">13</tspan><tspan font-style="normal" font-size="50" x="480.104" y="73">19</tspan><tspan font-style="normal" font-size="50" x="742.5" y="73">9</tspan><tspan font-style="normal" font-size="50" x="990" y="73">5</tspan><tspan font-style="normal" font-size="50" x="1222.6" y="73">12</tspan><tspan font-style="normal" font-size="50" x="1485" y="73">4</tspan><tspan font-style="normal" font-size="50" x="1732.5" y="73">7</tspan><tspan font-style="normal" font-size="50" x="1980" y="73">8</tspan><tspan font-size="50" x="0" y="146">i</tspan><tspan font-size="50" x="247.5" y="146">p</tspan><tspan font-size="50" x="495" y="146">j</tspan><tspan font-size="50" x="1980" y="146">r</tspan><tspan font-size="50" x="-262.396" y="220">b)</tspan><tspan fill="#FFFFFF" font-style="normal" font-size="50" x="232.604" y="220">13</tspan><tspan font-style="normal" font-size="50" x="480.104" y="220">19</tspan><tspan font-style="normal" font-size="50" x="742.5" y="220">9</tspan><tspan font-style="normal" font-size="50" x="990" y="220">5</tspan><tspan font-style="normal" font-size="50" x="1222.6" y="220">12</tspan><tspan font-style="normal" font-size="50" x="1485" y="220">4</tspan><tspan font-style="normal" font-size="50" x="1732.5" y="220">7</tspan><tspan font-style="normal" font-size="50" x="1980" y="220">8</tspan><tspan font-size="50" x="0" y="293">i</tspan><tspan font-size="50" x="247.5" y="293">p</tspan><tspan font-size="50" x="742.5" y="293">j</tspan><tspan font-size="50" x="1980" y="293">r</tspan><tspan font-size="50" x="-262.396" y="366">c)</tspan><tspan fill="#FFFFFF" font-style="normal" font-size="50" x="232.604" y="366">13</tspan><tspan fill="#FFFFFF" font-style="normal" font-size="50" x="480.104" y="366">19</tspan><tspan font-style="normal" font-size="50" x="742.5" y="366">9</tspan><tspan font-style="normal" font-size="50" x="990" y="366">5</tspan><tspan font-style="normal" font-size="50" x="1222.6" y="366">12</tspan><tspan font-style="normal" font-size="50" x="1485" y="366">4</tspan><tspan font-style="normal" font-size="50" x="1732.5" y="366">7</tspan><tspan font-style="normal" font-size="50" x="1980" y="366">8</tspan><tspan font-size="50" x="0" y="440">i</tspan><tspan font-size="50" x="247.5" y="440">p</tspan><tspan font-size="50" x="990" y="440">j</tspan><tspan font-size="50" x="1980" y="440">r</tspan><tspan font-size="50" x="-262.396" y="513">d)</tspan><tspan fill="#FFFFFF" font-style="normal" font-size="50" x="232.604" y="513">13</tspan><tspan fill="#FFFFFF" font-style="normal" font-size="50" x="480.104" y="513">19</tspan><tspan fill="#FFFFFF" font-style="normal" font-size="50" x="742.5" y="513">9</tspan><tspan font-style="normal" font-size="50" x="990" y="513">5</tspan><tspan font-style="normal" font-size="50" x="1222.6" y="513">12</tspan><tspan font-style="normal" font-size="50" x="1485" y="513">4</tspan><tspan font-style="normal" font-size="50" x="1732.5" y="513">7</tspan><tspan font-style="normal" font-size="50" x="1980" y="513">8</tspan><tspan font-size="50" x="202.813" y="586">p, i</tspan><tspan font-size="50" x="1237.5" y="586">j</tspan><tspan font-size="50" x="1980" y="586">r</tspan><tspan font-size="50" x="-262.396" y="660">e)</tspan><tspan font-style="normal" font-size="50" x="247.5" y="660">5</tspan><tspan fill="#FFFFFF" font-style="normal" font-size="50" x="480.104" y="660">19</tspan><tspan fill="#FFFFFF" font-style="normal" font-size="50" x="742.5" y="660">9</tspan><tspan fill="#FFFFFF" font-style="normal" font-size="50" x="975.104" y="660">13</tspan><tspan font-style="normal" font-size="50" x="1222.6" y="660">12</tspan><tspan font-style="normal" font-size="50" x="1485" y="660">4</tspan><tspan font-style="normal" font-size="50" x="1732.5" y="660">7</tspan><tspan font-style="normal" font-size="50" x="1980" y="660">8</tspan><tspan font-size="50" x="202.813" y="733">p, i</tspan><tspan font-size="50" x="1485" y="733">j</tspan><tspan font-size="50" x="1980" y="733">r</tspan><tspan font-size="50" x="-262.396" y="806">f)</tspan><tspan font-style="normal" font-size="50" x="247.5" y="806">5</tspan><tspan fill="#FFFFFF" font-style="normal" font-size="50" x="480.104" y="806">19</tspan><tspan fill="#FFFFFF" font-style="normal" font-size="50" x="742.5" y="806">9</tspan><tspan fill="#FFFFFF" font-style="normal" font-size="50" x="975.104" y="806">13</tspan><tspan fill="#FFFFFF" font-style="normal" font-size="50" x="1222.6" y="806">12</tspan><tspan font-style="normal" font-size="50" x="1485" y="806">4</tspan><tspan font-style="normal" font-size="50" x="1732.5" y="806">7</tspan><tspan font-style="normal" font-size="50" x="1980" y="806">8</tspan><tspan font-size="50" x="247.5" y="880">p</tspan><tspan font-size="50" x="495" y="880">i</tspan><tspan font-size="50" x="1732.5" y="880">j</tspan><tspan font-size="50" x="1980" y="880">r</tspan><tspan font-size="50" x="-262.396" y="953">g)</tspan><tspan font-style="normal" font-size="50" x="247.5" y="953">5</tspan><tspan font-style="normal" font-size="50" x="495" y="953">4</tspan><tspan fill="#FFFFFF" font-style="normal" font-size="50" x="742.5" y="953">9</tspan><tspan fill="#FFFFFF" font-style="normal" font-size="50" x="975.104" y="953">13</tspan><tspan fill="#FFFFFF" font-style="normal" font-size="50" x="1222.6" y="953">12</tspan><tspan fill="#FFFFFF" font-style="normal" font-size="50" x="1470.1" y="953">19</tspan><tspan font-style="normal" font-size="50" x="1732.5" y="953">7</tspan><tspan font-style="normal" font-size="50" x="1980" y="953">8</tspan><tspan font-size="50" x="247.5" y="1026">p</tspan><tspan font-size="50" x="742.5" y="1026">i</tspan><tspan font-size="50" x="1980" y="1026">r</tspan><tspan font-size="50" x="-262.396" y="1100">h)</tspan><tspan font-style="normal" font-size="50" x="247.5" y="1100">5</tspan><tspan font-style="normal" font-size="50" x="495" y="1100">4</tspan><tspan font-style="normal" font-size="50" x="742.5" y="1100">7</tspan><tspan fill="#FFFFFF" font-style="normal" font-size="50" x="975.104" y="1100">13</tspan><tspan fill="#FFFFFF" font-style="normal" font-size="50" x="1222.6" y="1100">12</tspan><tspan fill="#FFFFFF" font-style="normal" font-size="50" x="1470.1" y="1100">19</tspan><tspan fill="#FFFFFF" font-style="normal" font-size="50" x="1732.5" y="1100">9</tspan><tspan font-style="normal" font-size="50" x="1980" y="1100">8</tspan><tspan font-size="50" x="247.5" y="1173">p</tspan><tspan font-size="50" x="742.5" y="1173">i</tspan><tspan font-size="50" x="1980" y="1173">r</tspan><tspan font-size="50" x="-262.396" y="1246">i)</tspan><tspan font-style="normal" font-size="50" x="247.5" y="1246">5</tspan><tspan font-style="normal" font-size="50" x="495" y="1246">4</tspan><tspan font-style="normal" font-size="50" x="742.5" y="1246">7</tspan><tspan font-style="normal" font-size="50" x="990" y="1246">8</tspan><tspan fill="#FFFFFF" font-style="normal" font-size="50" x="1222.6" y="1246">12</tspan><tspan fill="#FFFFFF" font-style="normal" font-size="50" x="1470.1" y="1246">19</tspan><tspan fill="#FFFFFF" font-style="normal" font-size="50" x="1732.5" y="1246">9</tspan><tspan fill="#FFFFFF" font-style="normal" font-size="50" x="1965.1" y="1246">13</tspan></text></g></svg>