<svg width="2389" height="1352" xmlns="http://www.w3.org/2000/svg" xmlns:xlink="http://www.w3.org/1999/xlink" overflow="hidden"><defs><clipPath id="clip0"><rect x="1008" y="776" width="2389" height="1352"/></clipPath></defs><g clip-path="url(#clip0)" transform="translate(-1008 -776)"><path d="M1485 1004.04 1723.33 1004.04 1723.33 1077.37 1485 1077.37Z" fill="#00B050" fill-rule="evenodd"/><path d="M1485 1150.7 1723.33 1150.7 1723.33 1224.04 1485 1224.04Z" fill="#00B050" fill-rule="evenodd"/><path d="M1723.33 1150.7 1961.67 1150.7 1961.67 1224.04 1723.33 1224.04Z" fill="#00B050" fill-rule="evenodd"/><path d="M1485 1297.37 1723.33 1297.37 1723.33 1370.7 1485 1370.7Z" fill="#00B050" fill-rule="evenodd"/><path d="M1723.33 1297.37 1961.67 1297.37 1961.67 1370.7 1723.33 1370.7Z" fill="#00B050" fill-rule="evenodd"/><path d="M1961.67 1297.37 2200 1297.37 2200 1370.7 1961.67 1370.7Z" fill="#00B050" fill-rule="evenodd"/><path d="M1485 1444.04 1723.33 1444.04 1723.33 1517.37 1485 1517.37Z" fill="#F4B084" fill-rule="evenodd"/><path d="M1723.33 1444.04 1961.67 1444.04 1961.67 1517.37 1723.33 1517.37Z" fill="#00B050" fill-rule="evenodd"/><path d="M1961.67 1444.04 2200 1444.04 2200 1517.37 1961.67 1517.37Z" fill="#00B050" fill-rule="evenodd"/><path d="M2200 1444.04 2438.33 1444.04 2438.33 1517.37 2200 1517.37Z" fill="#00B050" fill-rule="evenodd"/><path d="M1485 1590.7 1723.33 1590.7 1723.33 1664.04 1485 1664.04Z" fill="#F4B084" fill-rule="evenodd"/><path d="M1723.33 1590.7 1961.67 1590.7 1961.67 1664.04 1723.33 1664.04Z" fill="#00B050" fill-rule="evenodd"/><path d="M1961.67 1590.7 2200 1590.7 2200 1664.04 1961.67 1664.04Z" fill="#00B050" fill-rule="evenodd"/><path d="M2200 1590.7 2438.33 1590.7 2438.33 1664.04 2200 1664.04Z" fill="#00B050" fill-rule="evenodd"/><path d="M2438.33 1590.7 2676.67 1590.7 2676.67 1664.04 2438.33 1664.04Z" fill="#00B050" fill-rule="evenodd"/><path d="M1485 1737.37 1723.33 1737.37 1723.33 1810.7 1485 1810.7Z" fill="#F4B084" fill-rule="evenodd"/><path d="M1723.33 1737.37 1961.67 1737.37 1961.67 1810.7 1723.33 1810.7Z" fill="#F4B084" fill-rule="evenodd"/><path d="M1961.67 1737.37 2200 1737.37 2200 1810.7 1961.67 1810.7Z" fill="#00B050" fill-rule="evenodd"/><path d="M2200 1737.37 2438.33 1737.37 2438.33 1810.7 2200 1810.7Z" fill="#00B050" fill-rule="evenodd"/><path d="M2438.33 1737.37 2676.67 1737.37 2676.67 1810.7 2438.33 1810.7Z" fill="#00B050" fill-rule="evenodd"/><path d="M2676.67 1737.37 2915 1737.37 2915 1810.7 2676.67 1810.7Z" fill="#00B050" fill-rule="evenodd"/><path d="M1485 1884.04 1723.33 1884.04 1723.33 1957.37 1485 1957.37Z" fill="#F4B084" fill-rule="evenodd"/><path d="M1723.33 1884.04 1961.67 1884.04 1961.67 1957.37 1723.33 1957.37Z" fill="#F4B084" fill-rule="evenodd"/><path d="M1961.67 1884.04 2200 1884.04 2200 1957.37 1961.67 1957.37Z" fill="#F4B084" fill-rule="evenodd"/><path d="M2200 1884.04 2438.33 1884.04 2438.33 1957.37 2200 1957.37Z" fill="#00B050" fill-rule="evenodd"/><path d="M2438.33 1884.04 2676.67 1884.04 2676.67 1957.37 2438.33 1957.37Z" fill="#00B050" fill-rule="evenodd"/><path d="M2676.67 1884.04 2915 1884.04 2915 1957.37 2676.67 1957.37Z" fill="#00B050" fill-rule="evenodd"/><path d="M2915 1884.04 3153.33 1884.04 3153.33 1957.37 2915 1957.37Z" fill="#00B050" fill-rule="evenodd"/><path d="M1485 2030.7 1723.33 2030.7 1723.33 2104.04 1485 2104.04Z" fill="#F4B084" fill-rule="evenodd"/><path d="M1723.33 2030.7 1961.67 2030.7 1961.67 2104.04 1723.33 2104.04Z" fill="#F4B084" fill-rule="evenodd"/><path d="M1961.67 2030.7 2200 2030.7 2200 2104.04 1961.67 2104.04Z" fill="#F4B084" fill-rule="evenodd"/><path d="M2438.33 2030.7 2676.67 2030.7 2676.67 2104.04 2438.33 2104.04Z" fill="#00B050" fill-rule="evenodd"/><path d="M2676.67 2030.7 2915 2030.7 2915 2104.04 2676.67 2104.04Z" fill="#00B050" fill-rule="evenodd"/><path d="M2915 2030.7 3153.33 2030.7 3153.33 2104.04 2915 2104.04Z" fill="#00B050" fill-rule="evenodd"/><path d="M3153.33 2030.7 3391.67 2030.7 3391.67 2104.04 3153.33 2104.04Z" fill="#00B050" fill-rule="evenodd"/><path d="M1485 856.224 1485 931.849" stroke="#000000" stroke-width="6.875" stroke-linejoin="round" stroke-miterlimit="10" fill="none" fill-rule="evenodd"/><path d="M1485 1002.89 1485 1078.52" stroke="#000000" stroke-width="6.875" stroke-linejoin="round" stroke-miterlimit="10" fill="none" fill-rule="evenodd"/><path d="M1485 1149.56 1485 1225.18" stroke="#000000" stroke-width="6.875" stroke-linejoin="round" stroke-miterlimit="10" fill="none" fill-rule="evenodd"/><path d="M1485 1296.22 1485 1371.85" stroke="#000000" stroke-width="6.875" stroke-linejoin="round" stroke-miterlimit="10" fill="none" fill-rule="evenodd"/><path d="M1485 1442.89 1485 1518.52" stroke="#000000" stroke-width="6.875" stroke-linejoin="round" stroke-miterlimit="10" fill="none" fill-rule="evenodd"/><path d="M1485 1589.56 1485 1665.18" stroke="#000000" stroke-width="6.875" stroke-linejoin="round" stroke-miterlimit="10" fill="none" fill-rule="evenodd"/><path d="M1485 1736.22 1485 1811.85" stroke="#000000" stroke-width="6.875" stroke-linejoin="round" stroke-miterlimit="10" fill="none" fill-rule="evenodd"/><path d="M1485 1882.89 1485 1958.52" stroke="#000000" stroke-width="6.875" stroke-linejoin="round" stroke-miterlimit="10" fill="none" fill-rule="evenodd"/><path d="M1485 2029.56 1485 2105.18" stroke="#000000" stroke-width="6.875" stroke-linejoin="round" stroke-miterlimit="10" fill="none" fill-rule="evenodd"/><path d="M1723.33 856.224 1723.33 931.849" stroke="#000000" stroke-width="2.29167" stroke-linejoin="round" stroke-miterlimit="10" fill="none" fill-rule="evenodd"/><path d="M1723.33 1002.89 1723.33 1078.52" stroke="#000000" stroke-width="6.875" stroke-linejoin="round" stroke-miterlimit="10" fill="none" fill-rule="evenodd"/><path d="M1723.33 1149.56 1723.33 1225.18" stroke="#000000" stroke-width="2.29167" stroke-linejoin="round" stroke-miterlimit="10" fill="none" fill-rule="evenodd"/><path d="M1723.33 1296.22 1723.33 1371.85" stroke="#000000" stroke-width="2.29167" stroke-linejoin="round" stroke-miterlimit="10" fill="none" fill-rule="evenodd"/><path d="M1723.33 1442.89 1723.33 1518.52" stroke="#000000" stroke-width="6.875" stroke-linejoin="round" stroke-miterlimit="10" fill="none" fill-rule="evenodd"/><path d="M1723.33 1589.56 1723.33 1665.18" stroke="#000000" stroke-width="6.875" stroke-linejoin="round" stroke-miterlimit="10" fill="none" fill-rule="evenodd"/><path d="M1723.33 1736.22 1723.33 1811.85" stroke="#000000" stroke-width="2.29167" stroke-linejoin="round" stroke-miterlimit="10" fill="none" fill-rule="evenodd"/><path d="M1723.33 1882.89 1723.33 1958.52" stroke="#000000" stroke-width="2.29167" stroke-linejoin="round" stroke-miterlimit="10" fill="none" fill-rule="evenodd"/><path d="M1723.33 2029.56 1723.33 2105.18" stroke="#000000" stroke-width="2.29167" stroke-linejoin="round" stroke-miterlimit="10" fill="none" fill-rule="evenodd"/><path d="M1961.67 856.224 1961.67 931.849" stroke="#000000" stroke-width="2.29167" stroke-linejoin="round" stroke-miterlimit="10" fill="none" fill-rule="evenodd"/><path d="M1961.67 1002.89 1961.67 1078.52" stroke="#000000" stroke-width="2.29167" stroke-linejoin="round" stroke-miterlimit="10" fill="none" fill-rule="evenodd"/><path d="M1961.67 1149.56 1961.67 1225.18" stroke="#000000" stroke-width="6.875" stroke-linejoin="round" stroke-miterlimit="10" fill="none" fill-rule="evenodd"/><path d="M1961.67 1296.22 1961.67 1371.85" stroke="#000000" stroke-width="2.29167" stroke-linejoin="round" stroke-miterlimit="10" fill="none" fill-rule="evenodd"/><path d="M1961.67 1442.89 1961.67 1518.52" stroke="#000000" stroke-width="2.29167" stroke-linejoin="round" stroke-miterlimit="10" fill="none" fill-rule="evenodd"/><path d="M1961.67 1589.56 1961.67 1665.18" stroke="#000000" stroke-width="2.29167" stroke-linejoin="round" stroke-miterlimit="10" fill="none" fill-rule="evenodd"/><path d="M1961.67 1736.22 1961.67 1811.85" stroke="#000000" stroke-width="6.875" stroke-linejoin="round" stroke-miterlimit="10" fill="none" fill-rule="evenodd"/><path d="M1961.67 1882.89 1961.67 1958.52" stroke="#000000" stroke-width="2.29167" stroke-linejoin="round" stroke-miterlimit="10" fill="none" fill-rule="evenodd"/><path d="M1961.67 2029.56 1961.67 2105.18" stroke="#000000" stroke-width="2.29167" stroke-linejoin="round" stroke-miterlimit="10" fill="none" fill-rule="evenodd"/><path d="M2200 856.224 2200 931.849" stroke="#000000" stroke-width="2.29167" stroke-linejoin="round" stroke-miterlimit="10" fill="none" fill-rule="evenodd"/><path d="M2200 1002.89 2200 1078.52" stroke="#000000" stroke-width="2.29167" stroke-linejoin="round" stroke-miterlimit="10" fill="none" fill-rule="evenodd"/><path d="M2200 1149.56 2200 1225.18" stroke="#000000" stroke-width="2.29167" stroke-linejoin="round" stroke-miterlimit="10" fill="none" fill-rule="evenodd"/><path d="M2200 1296.22 2200 1371.85" stroke="#000000" stroke-width="6.875" stroke-linejoin="round" stroke-miterlimit="10" fill="none" fill-rule="evenodd"/><path d="M2200 1442.89 2200 1518.52" stroke="#000000" stroke-width="2.29167" stroke-linejoin="round" stroke-miterlimit="10" fill="none" fill-rule="evenodd"/><path d="M2200 1589.56 2200 1665.18" stroke="#000000" stroke-width="2.29167" stroke-linejoin="round" stroke-miterlimit="10" fill="none" fill-rule="evenodd"/><path d="M2200 1736.22 2200 1811.85" stroke="#000000" stroke-width="2.29167" stroke-linejoin="round" stroke-miterlimit="10" fill="none" fill-rule="evenodd"/><path d="M2200 1882.89 2200 1958.52" stroke="#000000" stroke-width="6.875" stroke-linejoin="round" stroke-miterlimit="10" fill="none" fill-rule="evenodd"/><path d="M2200 2029.56 2200 2105.18" stroke="#000000" stroke-width="6.875" stroke-linejoin="round" stroke-miterlimit="10" fill="none" fill-rule="evenodd"/><path d="M2438.33 856.224 2438.33 931.849" stroke="#000000" stroke-width="2.29167" stroke-linejoin="round" stroke-miterlimit="10" fill="none" fill-rule="evenodd"/><path d="M2438.33 1002.89 2438.33 1078.52" stroke="#000000" stroke-width="2.29167" stroke-linejoin="round" stroke-miterlimit="10" fill="none" fill-rule="evenodd"/><path d="M2438.33 1149.56 2438.33 1225.18" stroke="#000000" stroke-width="2.29167" stroke-linejoin="round" stroke-miterlimit="10" fill="none" fill-rule="evenodd"/><path d="M2438.33 1296.22 2438.33 1371.85" stroke="#000000" stroke-width="2.29167" stroke-linejoin="round" stroke-miterlimit="10" fill="none" fill-rule="evenodd"/><path d="M2438.33 1442.89 2438.33 1518.52" stroke="#000000" stroke-width="6.875" stroke-linejoin="round" stroke-miterlimit="10" fill="none" fill-rule="evenodd"/><path d="M2438.33 1589.56 2438.33 1665.18" stroke="#000000" stroke-width="6.875" stroke-linejoin="round" stroke-miterlimit="10" fill="none" fill-rule="evenodd"/><path d="M2438.33 1736.22 2438.33 1811.85" stroke="#000000" stroke-width="2.29167" stroke-linejoin="round" stroke-miterlimit="10" fill="none" fill-rule="evenodd"/><path d="M2438.33 1882.89 2438.33 1958.52" stroke="#000000" stroke-width="2.29167" stroke-linejoin="round" stroke-miterlimit="10" fill="none" fill-rule="evenodd"/><path d="M2438.33 2029.56 2438.33 2105.18" stroke="#000000" stroke-width="6.875" stroke-linejoin="round" stroke-miterlimit="10" fill="none" fill-rule="evenodd"/><path d="M2676.67 856.224 2676.67 931.849" stroke="#000000" stroke-width="2.29167" stroke-linejoin="round" stroke-miterlimit="10" fill="none" fill-rule="evenodd"/><path d="M2676.67 1002.89 2676.67 1078.52" stroke="#000000" stroke-width="2.29167" stroke-linejoin="round" stroke-miterlimit="10" fill="none" fill-rule="evenodd"/><path d="M2676.67 1149.56 2676.67 1225.18" stroke="#000000" stroke-width="2.29167" stroke-linejoin="round" stroke-miterlimit="10" fill="none" fill-rule="evenodd"/><path d="M2676.67 1296.22 2676.67 1371.85" stroke="#000000" stroke-width="2.29167" stroke-linejoin="round" stroke-miterlimit="10" fill="none" fill-rule="evenodd"/><path d="M2676.67 1442.89 2676.67 1518.52" stroke="#000000" stroke-width="2.29167" stroke-linejoin="round" stroke-miterlimit="10" fill="none" fill-rule="evenodd"/><path d="M2676.67 1589.56 2676.67 1665.18" stroke="#000000" stroke-width="2.29167" stroke-linejoin="round" stroke-miterlimit="10" fill="none" fill-rule="evenodd"/><path d="M2676.67 1736.22 2676.67 1811.85" stroke="#000000" stroke-width="2.29167" stroke-linejoin="round" stroke-miterlimit="10" fill="none" fill-rule="evenodd"/><path d="M2676.67 1882.89 2676.67 1958.52" stroke="#000000" stroke-width="2.29167" stroke-linejoin="round" stroke-miterlimit="10" fill="none" fill-rule="evenodd"/><path d="M2676.67 2029.56 2676.67 2105.18" stroke="#000000" stroke-width="2.29167" stroke-linejoin="round" stroke-miterlimit="10" fill="none" fill-rule="evenodd"/><path d="M2915 856.224 2915 931.849" stroke="#000000" stroke-width="2.29167" stroke-linejoin="round" stroke-miterlimit="10" fill="none" fill-rule="evenodd"/><path d="M2915 1002.89 2915 1078.52" stroke="#000000" stroke-width="2.29167" stroke-linejoin="round" stroke-miterlimit="10" fill="none" fill-rule="evenodd"/><path d="M2915 1149.56 2915 1225.18" stroke="#000000" stroke-width="2.29167" stroke-linejoin="round" stroke-miterlimit="10" fill="none" fill-rule="evenodd"/><path d="M2915 1296.22 2915 1371.85" stroke="#000000" stroke-width="2.29167" stroke-linejoin="round" stroke-miterlimit="10" fill="none" fill-rule="evenodd"/><path d="M2915 1442.89 2915 1518.52" stroke="#000000" stroke-width="2.29167" stroke-linejoin="round" stroke-miterlimit="10" fill="none" fill-rule="evenodd"/><path d="M2915 1589.56 2915 1665.18" stroke="#000000" stroke-width="2.29167" stroke-linejoin="round" stroke-miterlimit="10" fill="none" fill-rule="evenodd"/><path d="M2915 1736.22 2915 1811.85" stroke="#000000" stroke-width="2.29167" stroke-linejoin="round" stroke-miterlimit="10" fill="none" fill-rule="evenodd"/><path d="M2915 1882.89 2915 1958.52" stroke="#000000" stroke-width="2.29167" stroke-linejoin="round" stroke-miterlimit="10" fill="none" fill-rule="evenodd"/><path d="M2915 2029.56 2915 2105.18" stroke="#000000" stroke-width="2.29167" stroke-linejoin="round" stroke-miterlimit="10" fill="none" fill-rule="evenodd"/><path d="M3153.33 856.224 3153.33 931.849" stroke="#000000" stroke-width="6.875" stroke-linejoin="round" stroke-miterlimit="10" fill="none" fill-rule="evenodd"/><path d="M3153.33 1002.89 3153.33 1078.52" stroke="#000000" stroke-width="6.875" stroke-linejoin="round" stroke-miterlimit="10" fill="none" fill-rule="evenodd"/><path d="M3153.33 1149.56 3153.33 1225.18" stroke="#000000" stroke-width="6.875" stroke-linejoin="round" stroke-miterlimit="10" fill="none" fill-rule="evenodd"/><path d="M3153.33 1296.22 3153.33 1371.85" stroke="#000000" stroke-width="6.875" stroke-linejoin="round" stroke-miterlimit="10" fill="none" fill-rule="evenodd"/><path d="M3153.33 1442.89 3153.33 1518.52" stroke="#000000" stroke-width="6.875" stroke-linejoin="round" stroke-miterlimit="10" fill="none" fill-rule="evenodd"/><path d="M3153.33 1589.56 3153.33 1665.18" stroke="#000000" stroke-width="6.875" stroke-linejoin="round" stroke-miterlimit="10" fill="none" fill-rule="evenodd"/><path d="M3153.33 1736.22 3153.33 1811.85" stroke="#000000" stroke-width="6.875" stroke-linejoin="round" stroke-miterlimit="10" fill="none" fill-rule="evenodd"/><path d="M3153.33 1882.89 3153.33 1958.52" stroke="#000000" stroke-width="6.875" stroke-linejoin="round" stroke-miterlimit="10" fill="none" fill-rule="evenodd"/><path d="M3153.33 2029.56 3153.33 2105.18" stroke="#000000" stroke-width="2.29167" stroke-linejoin="round" stroke-miterlimit="10" fill="none" fill-rule="evenodd"/><path d="M1481.56 857.37 3392.81 857.37" stroke="#000000" stroke-width="2.29167" stroke-linejoin="round" stroke-miterlimit="10" fill="none" fill-rule="evenodd"/><path d="M1481.56 930.703 3392.81 930.703" stroke="#000000" stroke-width="2.29167" stroke-linejoin="round" stroke-miterlimit="10" fill="none" fill-rule="evenodd"/><path d="M1481.56 1004.04 3392.81 1004.04" stroke="#000000" stroke-width="2.29167" stroke-linejoin="round" stroke-miterlimit="10" fill="none" fill-rule="evenodd"/><path d="M1481.56 1077.37 3392.81 1077.37" stroke="#000000" stroke-width="2.29167" stroke-linejoin="round" stroke-miterlimit="10" fill="none" fill-rule="evenodd"/><path d="M1481.56 1150.7 3392.81 1150.7" stroke="#000000" stroke-width="2.29167" stroke-linejoin="round" stroke-miterlimit="10" fill="none" fill-rule="evenodd"/><path d="M1481.56 1224.04 3392.81 1224.04" stroke="#000000" stroke-width="2.29167" stroke-linejoin="round" stroke-miterlimit="10" fill="none" fill-rule="evenodd"/><path d="M1481.56 1297.37 3392.81 1297.37" stroke="#000000" stroke-width="2.29167" stroke-linejoin="round" stroke-miterlimit="10" fill="none" fill-rule="evenodd"/><path d="M1481.56 1370.7 3392.81 1370.7" stroke="#000000" stroke-width="2.29167" stroke-linejoin="round" stroke-miterlimit="10" fill="none" fill-rule="evenodd"/><path d="M1481.56 1444.04 3392.81 1444.04" stroke="#000000" stroke-width="2.29167" stroke-linejoin="round" stroke-miterlimit="10" fill="none" fill-rule="evenodd"/><path d="M1481.56 1517.37 3392.81 1517.37" stroke="#000000" stroke-width="2.29167" stroke-linejoin="round" stroke-miterlimit="10" fill="none" fill-rule="evenodd"/><path d="M1481.56 1590.7 3392.81 1590.7" stroke="#000000" stroke-width="2.29167" stroke-linejoin="round" stroke-miterlimit="10" fill="none" fill-rule="evenodd"/><path d="M1481.56 1664.04 3392.81 1664.04" stroke="#000000" stroke-width="2.29167" stroke-linejoin="round" stroke-miterlimit="10" fill="none" fill-rule="evenodd"/><path d="M1481.56 1737.37 3392.81 1737.37" stroke="#000000" stroke-width="2.29167" stroke-linejoin="round" stroke-miterlimit="10" fill="none" fill-rule="evenodd"/><path d="M1481.56 1810.7 3392.81 1810.7" stroke="#000000" stroke-width="2.29167" stroke-linejoin="round" stroke-miterlimit="10" fill="none" fill-rule="evenodd"/><path d="M1481.56 1884.04 3392.81 1884.04" stroke="#000000" stroke-width="2.29167" stroke-linejoin="round" stroke-miterlimit="10" fill="none" fill-rule="evenodd"/><path d="M1481.56 1957.37 3392.81 1957.37" stroke="#000000" stroke-width="2.29167" stroke-linejoin="round" stroke-miterlimit="10" fill="none" fill-rule="evenodd"/><path d="M1481.56 2030.7 3395.1 2030.7" stroke="#000000" stroke-width="2.29167" stroke-linejoin="round" stroke-miterlimit="10" fill="none" fill-rule="evenodd"/><path d="M3391.67 856.224 3391.67 931.849" stroke="#000000" stroke-width="2.29167" stroke-linejoin="round" stroke-miterlimit="10" fill="none" fill-rule="evenodd"/><path d="M3391.67 1002.89 3391.67 1078.52" stroke="#000000" stroke-width="2.29167" stroke-linejoin="round" stroke-miterlimit="10" fill="none" fill-rule="evenodd"/><path d="M3391.67 1149.56 3391.67 1225.18" stroke="#000000" stroke-width="2.29167" stroke-linejoin="round" stroke-miterlimit="10" fill="none" fill-rule="evenodd"/><path d="M3391.67 1296.22 3391.67 1371.85" stroke="#000000" stroke-width="2.29167" stroke-linejoin="round" stroke-miterlimit="10" fill="none" fill-rule="evenodd"/><path d="M3391.67 1442.89 3391.67 1518.52" stroke="#000000" stroke-width="2.29167" stroke-linejoin="round" stroke-miterlimit="10" fill="none" fill-rule="evenodd"/><path d="M3391.67 1589.56 3391.67 1665.18" stroke="#000000" stroke-width="2.29167" stroke-linejoin="round" stroke-miterlimit="10" fill="none" fill-rule="evenodd"/><path d="M3391.67 1736.22 3391.67 1811.85" stroke="#000000" stroke-width="2.29167" stroke-linejoin="round" stroke-miterlimit="10" fill="none" fill-rule="evenodd"/><path d="M3391.67 1882.89 3391.67 1958.52" stroke="#000000" stroke-width="2.29167" stroke-linejoin="round" stroke-miterlimit="10" fill="none" fill-rule="evenodd"/><path d="M3391.67 2029.56 3391.67 2105.18" stroke="#000000" stroke-width="6.875" stroke-linejoin="round" stroke-miterlimit="10" fill="none" fill-rule="evenodd"/><path d="M1481.56 2104.04 3395.1 2104.04" stroke="#000000" stroke-width="2.29167" stroke-linejoin="round" stroke-miterlimit="10" fill="none" fill-rule="evenodd"/><text font-family="Cascadia Mono,Cascadia Mono_MSFontService,sans-serif" font-style="italic" font-weight="400" font-size="50" transform="matrix(1 0 0 1 1350.94 839)">i<tspan font-size="50" x="193.646" y="0">p, j</tspan><tspan font-size="50" x="1906.67" y="0">r</tspan><tspan font-size="50" x="-253.229" y="73">a)</tspan><tspan font-style="normal" font-size="50" x="238.333" y="73">2</tspan><tspan font-style="normal" font-size="50" x="476.667" y="73">8</tspan><tspan font-style="normal" font-size="50" x="715" y="73">7</tspan><tspan font-style="normal" font-size="50" x="953.333" y="73">1</tspan><tspan font-style="normal" font-size="50" x="1191.67" y="73">3</tspan><tspan font-style="normal" font-size="50" x="1430" y="73">5</tspan><tspan font-style="normal" font-size="50" x="1668.33" y="73">6</tspan><tspan font-style="normal" font-size="50" x="1906.67" y="73">4</tspan><tspan font-size="50" x="193.646" y="146">p, i</tspan><tspan font-size="50" x="476.667" y="146">j</tspan><tspan font-size="50" x="1906.67" y="146">r</tspan><tspan font-size="50" x="-253.229" y="220">b)</tspan><tspan fill="#FFFFFF" font-style="normal" font-size="50" x="238.333" y="220">2</tspan><tspan font-style="normal" font-size="50" x="476.667" y="220">8</tspan><tspan font-style="normal" font-size="50" x="715" y="220">7</tspan><tspan font-style="normal" font-size="50" x="953.333" y="220">1</tspan><tspan font-style="normal" font-size="50" x="1191.67" y="220">3</tspan><tspan font-style="normal" font-size="50" x="1430" y="220">5</tspan><tspan font-style="normal" font-size="50" x="1668.33" y="220">6</tspan><tspan font-style="normal" font-size="50" x="1906.67" y="220">4</tspan><tspan font-size="50" x="193.646" y="293">p, i</tspan><tspan font-size="50" x="715" y="293">j</tspan><tspan font-size="50" x="1906.67" y="293">r</tspan><tspan font-size="50" x="-253.229" y="366">c)</tspan><tspan fill="#FFFFFF" font-style="normal" font-size="50" x="238.333" y="366">2</tspan><tspan fill="#FFFFFF" font-style="normal" font-size="50" x="476.667" y="366">8</tspan><tspan font-style="normal" font-size="50" x="715" y="366">7</tspan><tspan font-style="normal" font-size="50" x="953.333" y="366">1</tspan><tspan font-style="normal" font-size="50" x="1191.67" y="366">3</tspan><tspan font-style="normal" font-size="50" x="1430" y="366">5</tspan><tspan font-style="normal" font-size="50" x="1668.33" y="366">6</tspan><tspan font-style="normal" font-size="50" x="1906.67" y="366">4</tspan><tspan font-size="50" x="193.646" y="440">p, i</tspan><tspan font-size="50" x="953.333" y="440">j</tspan><tspan font-size="50" x="1906.67" y="440">r</tspan><tspan font-size="50" x="-253.229" y="513">d)</tspan><tspan fill="#FFFFFF" font-style="normal" font-size="50" x="238.333" y="513">2</tspan><tspan fill="#FFFFFF" font-style="normal" font-size="50" x="476.667" y="513">8</tspan><tspan fill="#FFFFFF" font-style="normal" font-size="50" x="715" y="513">7</tspan><tspan font-style="normal" font-size="50" x="953.333" y="513">1</tspan><tspan font-style="normal" font-size="50" x="1191.67" y="513">3</tspan><tspan font-style="normal" font-size="50" x="1430" y="513">5</tspan><tspan font-style="normal" font-size="50" x="1668.33" y="513">6</tspan><tspan font-style="normal" font-size="50" x="1906.67" y="513">4</tspan><tspan font-size="50" x="238.333" y="586">p</tspan><tspan font-size="50" x="476.667" y="586">i</tspan><tspan font-size="50" x="1191.67" y="586">j</tspan><tspan font-size="50" x="1906.67" y="586">r</tspan><tspan font-size="50" x="-253.229" y="660">e)</tspan><tspan font-style="normal" font-size="50" x="238.333" y="660">2</tspan><tspan fill="#FFFFFF" font-style="normal" font-size="50" x="476.667" y="660">1</tspan><tspan fill="#FFFFFF" font-style="normal" font-size="50" x="715" y="660">7</tspan><tspan fill="#FFFFFF" font-style="normal" font-size="50" x="953.333" y="660">8</tspan><tspan font-style="normal" font-size="50" x="1191.67" y="660">3</tspan><tspan font-style="normal" font-size="50" x="1430" y="660">5</tspan><tspan font-style="normal" font-size="50" x="1668.33" y="660">6</tspan><tspan font-style="normal" font-size="50" x="1906.67" y="660">4</tspan><tspan font-size="50" x="238.333" y="733">p</tspan><tspan font-size="50" x="715" y="733">i</tspan><tspan font-size="50" x="1430" y="733">j</tspan><tspan font-size="50" x="1906.67" y="733">r</tspan><tspan font-size="50" x="-253.229" y="806">f)</tspan><tspan font-style="normal" font-size="50" x="238.333" y="806">2</tspan><tspan fill="#FFFFFF" font-style="normal" font-size="50" x="476.667" y="806">1</tspan><tspan fill="#FFFFFF" font-style="normal" font-size="50" x="715" y="806">3</tspan><tspan fill="#FFFFFF" font-style="normal" font-size="50" x="953.333" y="806">8</tspan><tspan fill="#FFFFFF" font-style="normal" font-size="50" x="1191.67" y="806">7</tspan><tspan font-style="normal" font-size="50" x="1430" y="806">5</tspan><tspan font-style="normal" font-size="50" x="1668.33" y="806">6</tspan><tspan font-style="normal" font-size="50" x="1906.67" y="806">4</tspan><tspan font-size="50" x="238.333" y="880">p</tspan><tspan font-size="50" x="715" y="880">i</tspan><tspan font-size="50" x="1668.33" y="880">j</tspan><tspan font-size="50" x="1906.67" y="880">r</tspan><tspan font-size="50" x="-253.229" y="953">g)</tspan><tspan font-style="normal" font-size="50" x="238.333" y="953">2</tspan><tspan font-style="normal" font-size="50" x="476.667" y="953">1</tspan><tspan fill="#FFFFFF" font-style="normal" font-size="50" x="715" y="953">3</tspan><tspan fill="#FFFFFF" font-style="normal" font-size="50" x="953.333" y="953">8</tspan><tspan fill="#FFFFFF" font-style="normal" font-size="50" x="1191.67" y="953">7</tspan><tspan fill="#FFFFFF" font-style="normal" font-size="50" x="1430" y="953">5</tspan><tspan font-style="normal" font-size="50" x="1668.33" y="953">6</tspan><tspan font-style="normal" font-size="50" x="1906.67" y="953">4</tspan><tspan font-size="50" x="238.333" y="1026">p</tspan><tspan font-size="50" x="715" y="1026">i</tspan><tspan font-size="50" x="1906.67" y="1026">r</tspan><tspan font-size="50" x="-253.229" y="1100">h)</tspan><tspan font-style="normal" font-size="50" x="238.333" y="1100">2</tspan><tspan font-style="normal" font-size="50" x="476.667" y="1100">1</tspan><tspan font-style="normal" font-size="50" x="715" y="1100">3</tspan><tspan fill="#FFFFFF" font-style="normal" font-size="50" x="953.333" y="1100">8</tspan><tspan fill="#FFFFFF" font-style="normal" font-size="50" x="1191.67" y="1100">7</tspan><tspan fill="#FFFFFF" font-style="normal" font-size="50" x="1430" y="1100">5</tspan><tspan fill="#FFFFFF" font-style="normal" font-size="50" x="1668.33" y="1100">6</tspan><tspan font-style="normal" font-size="50" x="1906.67" y="1100">4</tspan><tspan font-size="50" x="238.333" y="1173">p</tspan><tspan font-size="50" x="715" y="1173">i</tspan><tspan font-size="50" x="1906.67" y="1173">r</tspan><tspan font-size="50" x="-253.229" y="1246">i)</tspan><tspan font-style="normal" font-size="50" x="238.333" y="1246">2</tspan><tspan font-style="normal" font-size="50" x="476.667" y="1246">1</tspan><tspan font-style="normal" font-size="50" x="715" y="1246">3</tspan><tspan font-style="normal" font-size="50" x="953.333" y="1246">4</tspan><tspan fill="#FFFFFF" font-style="normal" font-size="50" x="1191.67" y="1246">7</tspan><tspan fill="#FFFFFF" font-style="normal" font-size="50" x="1430" y="1246">5</tspan><tspan fill="#FFFFFF" font-style="normal" font-size="50" x="1668.33" y="1246">6</tspan><tspan fill="#FFFFFF" font-style="normal" font-size="50" x="1906.67" y="1246">8</tspan></text></g></svg>